%TF.GenerationSoftware,KiCad,Pcbnew,8.0.1*%
%TF.CreationDate,2026-02-15T13:23:45+09:00*%
%TF.ProjectId,W1-AT_RP2040_Yestooth,57312d41-545f-4525-9032-3034305f5965,rev?*%
%TF.SameCoordinates,Original*%
%TF.FileFunction,Profile,NP*%
%FSLAX46Y46*%
G04 Gerber Fmt 4.6, Leading zero omitted, Abs format (unit mm)*
G04 Created by KiCad (PCBNEW 8.0.1) date 2026-02-15 13:23:45*
%MOMM*%
%LPD*%
G01*
G04 APERTURE LIST*
%TA.AperFunction,Profile*%
%ADD10C,0.500000*%
%TD*%
%TA.AperFunction,Profile*%
%ADD11C,0.050000*%
%TD*%
G04 APERTURE END LIST*
D10*
X65549465Y-28475001D02*
X42905646Y-28475000D01*
X380249407Y-123724992D02*
X400511977Y-123724991D01*
X242621000Y-22474997D02*
G75*
G02*
X244030540Y-23461965I0J-1500003D01*
G01*
X50049405Y-123724996D02*
X63961974Y-123724995D01*
X315009122Y-129724995D02*
X318908500Y-129724995D01*
X369955831Y-23461966D02*
X368729950Y-26830048D01*
X377900167Y-26830046D02*
X376674286Y-23461965D01*
X63961974Y-123724995D02*
G75*
G02*
X66311232Y-125369935I26J-2500005D01*
G01*
X66311205Y-125369945D02*
X67537087Y-128738026D01*
X136986977Y-123724993D02*
G75*
G02*
X139336233Y-125369934I23J-2500007D01*
G01*
X412031432Y-125369940D02*
G75*
G02*
X414380661Y-123724934I2349368J-855160D01*
G01*
X265796633Y-129724993D02*
G75*
G02*
X264387149Y-128738004I267J1500293D01*
G01*
X153895997Y-22474997D02*
G75*
G02*
X155305549Y-23461962I-197J-1500303D01*
G01*
X371365377Y-129724992D02*
G75*
G02*
X369955863Y-128738013I23J1499992D01*
G01*
X74433495Y-22474998D02*
X70534117Y-22474999D01*
X42905646Y-28475000D02*
G75*
G02*
X40556374Y-26830066I-46J2500000D01*
G01*
X40556414Y-26830051D02*
X39330531Y-23461969D01*
X336593142Y-28474996D02*
G75*
G02*
X334243867Y-26830063I158J2500296D01*
G01*
X147361197Y-26830050D02*
G75*
G02*
X145011965Y-28475033I-2349197J854950D01*
G01*
X320318040Y-128738024D02*
X321543923Y-125369942D01*
X312373700Y-125369944D02*
X313599582Y-128738026D01*
X427085661Y-123285651D02*
X429206981Y-121164332D01*
X414380661Y-123724992D02*
X426025000Y-123724992D01*
X77068914Y-26830050D02*
X75843033Y-23461968D01*
X32612077Y-23461970D02*
G75*
G02*
X34021615Y-22475043I1409423J-512930D01*
G01*
X41165374Y-129724996D02*
X45064751Y-129724997D01*
X46474291Y-128738026D02*
G75*
G02*
X45064751Y-129724953I-1409491J513026D01*
G01*
X310024469Y-123724994D02*
G75*
G02*
X312373643Y-125369965I-69J-2500006D01*
G01*
X323893154Y-123724994D02*
X366380725Y-123724993D01*
X23802630Y-123724997D02*
G75*
G02*
X22741984Y-123285641I70J1500097D01*
G01*
X366380718Y-28474997D02*
X336593142Y-28474996D01*
X77830657Y-123724995D02*
X136986977Y-123724993D01*
X237312082Y-23461967D02*
X236086201Y-26830049D01*
X429646321Y-120103673D02*
G75*
G02*
X429206970Y-121164321I-1500121J73D01*
G01*
X423905662Y-28474993D02*
G75*
G02*
X421556415Y-26830048I-162J2499793D01*
G01*
X233736969Y-28474998D02*
X158880649Y-28474998D01*
X74433495Y-22474998D02*
G75*
G02*
X75843048Y-23461962I-195J-1500302D01*
G01*
X36180722Y-123724997D02*
G75*
G02*
X38529962Y-125369943I78J-2499903D01*
G01*
X405496630Y-129724992D02*
G75*
G02*
X404087149Y-128738001I270J1500292D01*
G01*
X274680648Y-123724992D02*
X310024469Y-123724994D01*
X320318040Y-128738024D02*
G75*
G02*
X318908500Y-129725027I-1409640J513124D01*
G01*
X74255544Y-128738025D02*
X75481426Y-125369943D01*
X418921011Y-22474993D02*
X415021632Y-22474993D01*
X237312083Y-23461967D02*
G75*
G02*
X238721621Y-22474982I1409417J-512833D01*
G01*
X153895997Y-22474997D02*
X149996619Y-22474998D01*
X156531416Y-26830049D02*
X155305535Y-23461967D01*
X272331435Y-125369941D02*
G75*
G02*
X274680648Y-123725013I2348865J-854559D01*
G01*
X245256418Y-26830047D02*
X244030537Y-23461966D01*
X38529952Y-125369947D02*
X39755834Y-128738028D01*
X369955832Y-23461966D02*
G75*
G02*
X371365370Y-22475018I1409168J-512534D01*
G01*
X148506432Y-125369942D02*
G75*
G02*
X150855660Y-123724935I2349368J-855158D01*
G01*
X67898696Y-26830050D02*
G75*
G02*
X65549465Y-28475023I-2349396J855250D01*
G01*
X375264749Y-22474996D02*
X371365370Y-22474996D01*
X141971630Y-129724994D02*
X145871008Y-129724994D01*
X426025001Y-28474992D02*
G75*
G02*
X427085642Y-28914352I-1J-1499908D01*
G01*
X46474291Y-128738026D02*
X47700175Y-125369944D01*
X47700175Y-125369944D02*
G75*
G02*
X50049405Y-123724967I2349125J-854856D01*
G01*
X426025001Y-28474992D02*
X423905662Y-28474993D01*
X41165374Y-129724996D02*
G75*
G02*
X39755861Y-128738018I26J1499996D01*
G01*
X325073693Y-26830048D02*
G75*
G02*
X322724462Y-28475029I-2349193J854948D01*
G01*
X375264749Y-22474996D02*
G75*
G02*
X376674247Y-23461979I-49J-1500004D01*
G01*
X271105551Y-128738022D02*
G75*
G02*
X269696011Y-129725008I-1409551J513022D01*
G01*
X421556429Y-26830043D02*
X420330548Y-23461962D01*
X405496630Y-129724992D02*
X409396008Y-129724992D01*
X263161212Y-125369943D02*
X264387093Y-128738024D01*
X368729955Y-125369942D02*
X369955837Y-128738023D01*
X20620651Y-121164335D02*
G75*
G02*
X20181325Y-120103676I1060649J1060635D01*
G01*
X69124578Y-23461969D02*
G75*
G02*
X70534117Y-22475044I1409422J-512931D01*
G01*
X334243910Y-26830047D02*
X333018029Y-23461965D01*
X37920993Y-22474999D02*
G75*
G02*
X39330548Y-23461963I-193J-1500301D01*
G01*
X148587080Y-23461968D02*
X147361197Y-26830050D01*
X242621000Y-22474997D02*
X238721621Y-22474997D01*
X236086200Y-26830049D02*
G75*
G02*
X233736969Y-28475017I-2349600J855549D01*
G01*
X331608491Y-22474995D02*
X327709114Y-22474996D01*
X413612093Y-23461963D02*
X412386211Y-26830047D01*
X20181311Y-32096317D02*
X20181310Y-120103676D01*
X145011965Y-28475000D02*
X79418147Y-28474999D01*
X29036963Y-28475001D02*
X23802628Y-28475000D01*
X22741967Y-28914339D02*
X20620650Y-31035657D01*
X429206981Y-31035654D02*
X427085661Y-28914333D01*
X79418147Y-28474999D02*
G75*
G02*
X77068875Y-26830064I-47J2499999D01*
G01*
X69124578Y-23461969D02*
X67898697Y-26830050D01*
X368729950Y-26830048D02*
G75*
G02*
X366380718Y-28475016I-2349250J855048D01*
G01*
X37920993Y-22474999D02*
X34021615Y-22475000D01*
X410805548Y-128738021D02*
X412031431Y-125369940D01*
X32612076Y-23461970D02*
X31386195Y-26830051D01*
X371365377Y-129724992D02*
X375264755Y-129724992D01*
X31386195Y-26830051D02*
G75*
G02*
X29036963Y-28475022I-2349395J855251D01*
G01*
X326299575Y-23461966D02*
X325073694Y-26830048D01*
X141971630Y-129724994D02*
G75*
G02*
X140562148Y-128738004I270J1500294D01*
G01*
X74255544Y-128738025D02*
G75*
G02*
X72846004Y-129724965I-1409644J513225D01*
G01*
X260811980Y-123724993D02*
G75*
G02*
X263161243Y-125369932I-180J-2500307D01*
G01*
X400511977Y-123724991D02*
G75*
G02*
X402861235Y-125369933I23J-2500009D01*
G01*
X429646321Y-120103673D02*
X429646320Y-32096315D01*
X147280548Y-128738023D02*
X148506431Y-125369942D01*
X20181311Y-32096317D02*
G75*
G02*
X20620653Y-31035660I1500189J-83D01*
G01*
X377900177Y-125369940D02*
G75*
G02*
X380249407Y-123725005I2349223J-855060D01*
G01*
X322724462Y-28474997D02*
X247605650Y-28474996D01*
X331608491Y-22474995D02*
G75*
G02*
X333017988Y-23461980I-191J-1500205D01*
G01*
X410036979Y-28474996D02*
X380249399Y-28474995D01*
X376674295Y-128738021D02*
G75*
G02*
X375264755Y-129725021I-1409495J512921D01*
G01*
X147280548Y-128738023D02*
G75*
G02*
X145871008Y-129725006I-1409548J513023D01*
G01*
X429206981Y-31035654D02*
G75*
G02*
X429646292Y-32096315I-1060481J-1060546D01*
G01*
X402861209Y-125369942D02*
X404087090Y-128738023D01*
X150855660Y-123724993D02*
X260811980Y-123724993D01*
X68946627Y-129724995D02*
X72846004Y-129724996D01*
X75481427Y-125369943D02*
G75*
G02*
X77830657Y-123725015I2349073J-854857D01*
G01*
X412386210Y-26830047D02*
G75*
G02*
X410036979Y-28474979I-2349210J855047D01*
G01*
X366380725Y-123724993D02*
G75*
G02*
X368730018Y-125369919I275J-2499707D01*
G01*
X321543923Y-125369942D02*
G75*
G02*
X323893154Y-123725030I2349477J-855458D01*
G01*
X265796633Y-129724993D02*
X269696011Y-129724993D01*
X148587081Y-23461968D02*
G75*
G02*
X149996619Y-22475018I1409519J-513032D01*
G01*
X410805548Y-128738021D02*
G75*
G02*
X409396008Y-129725005I-1409548J513021D01*
G01*
X158880649Y-28474998D02*
G75*
G02*
X156531411Y-26830051I-149J2499798D01*
G01*
X247605650Y-28474996D02*
G75*
G02*
X245256412Y-26830049I-150J2499796D01*
G01*
X376674295Y-128738021D02*
X377900177Y-125369940D01*
X427085661Y-123285651D02*
G75*
G02*
X426025000Y-123725006I-1060761J1060851D01*
G01*
X326299575Y-23461966D02*
G75*
G02*
X327709114Y-22475012I1409525J-513034D01*
G01*
X23802630Y-123724997D02*
X36180722Y-123724997D01*
X20620650Y-121164336D02*
X22741969Y-123285656D01*
X315009122Y-129724995D02*
G75*
G02*
X313599558Y-128738035I178J1500295D01*
G01*
X68946627Y-129724995D02*
G75*
G02*
X67537094Y-128738023I73J1500095D01*
G01*
X413612094Y-23461963D02*
G75*
G02*
X415021632Y-22475019I1409306J-512737D01*
G01*
X418921011Y-22474993D02*
G75*
G02*
X420330544Y-23461963I-11J-1500007D01*
G01*
X380249399Y-28474995D02*
G75*
G02*
X377900119Y-26830064I-199J2499795D01*
G01*
X22741967Y-28914339D02*
G75*
G02*
X23802628Y-28475019I1060633J-1060661D01*
G01*
X139336208Y-125369943D02*
X140562090Y-128738025D01*
X271105551Y-128738022D02*
X272331435Y-125369941D01*
D11*
%TO.C,LED2*%
X363725000Y-43200000D02*
X362325000Y-43200000D01*
X362325000Y-41800000D01*
X363725000Y-41800000D01*
X363725000Y-43200000D01*
%TO.C,LED1*%
X80356250Y-81300000D02*
X78956250Y-81300000D01*
X78956250Y-79900000D01*
X80356250Y-79900000D01*
X80356250Y-81300000D01*
%TO.C,LED3*%
X382775000Y-43200000D02*
X381375000Y-43200000D01*
X381375000Y-41800000D01*
X382775000Y-41800000D01*
X382775000Y-43200000D01*
%TD*%
M02*
