M48
; DRILL file {KiCad 8.0.1} date 2026-02-15T13:23:46+0900
; FORMAT={-:-/ absolute / metric / decimal}
; #@! TF.CreationDate,2026-02-15T13:23:46+09:00
; #@! TF.GenerationSoftware,Kicad,Pcbnew,8.0.1
; #@! TF.FileFunction,NonPlated,1,2,NPTH
FMAT,2
METRIC
; #@! TA.AperFunction,NonPlated,NPTH,ComponentDrill
T1C1.700
; #@! TA.AperFunction,NonPlated,NPTH,ComponentDrill
T2C3.048
; #@! TA.AperFunction,NonPlated,NPTH,ComponentDrill
T3C3.988
; #@! TA.AperFunction,NonPlated,NPTH,ComponentDrill
T4C4.000
%
G90
G05
T1
X24.57Y-38.0
X24.57Y-57.05
X24.57Y-76.1
X24.57Y-95.15
X24.57Y-114.2
X34.73Y-38.0
X34.73Y-57.05
X34.73Y-76.1
X34.73Y-95.15
X34.73Y-114.2
X43.62Y-38.0
X43.62Y-57.05
X43.62Y-76.1
X43.62Y-95.15
X43.62Y-114.2
X53.78Y-38.0
X53.78Y-57.05
X53.78Y-76.1
X53.78Y-95.15
X53.78Y-114.2
X67.432Y-38.0
X69.814Y-95.15
X72.195Y-57.05
X72.195Y-114.2
X74.576Y-76.1
X77.593Y-38.0
X79.339Y-95.15
X79.974Y-95.15
X82.355Y-57.05
X82.355Y-114.2
X84.736Y-76.1
X86.483Y-38.0
X89.499Y-95.15
X91.245Y-95.15
X96.007Y-57.05
X96.007Y-114.2
X96.642Y-38.0
X100.77Y-76.1
X101.405Y-95.15
X105.532Y-38.0
X106.167Y-57.05
X106.167Y-114.2
X110.295Y-95.15
X110.93Y-76.1
X115.057Y-57.05
X115.692Y-38.0
X119.82Y-76.1
X119.82Y-114.2
X120.455Y-95.15
X124.582Y-38.0
X125.218Y-57.05
X129.345Y-95.15
X129.98Y-76.1
X129.98Y-114.2
X134.107Y-57.05
X134.743Y-38.0
X138.87Y-76.1
X139.505Y-95.15
X143.632Y-38.0
X144.267Y-57.05
X148.395Y-95.15
X149.03Y-76.1
X153.157Y-57.05
X153.792Y-38.0
X157.92Y-76.1
X158.555Y-95.15
X162.683Y-38.0
X163.317Y-57.05
X167.445Y-95.15
X168.08Y-76.1
X172.207Y-57.05
X172.843Y-38.0
X176.97Y-76.1
X177.605Y-95.15
X181.732Y-38.0
X182.367Y-57.05
X186.495Y-95.15
X187.13Y-76.1
X191.257Y-57.05
X191.892Y-38.0
X196.02Y-76.1
X196.655Y-95.15
X200.782Y-38.0
X200.782Y-114.2
X201.417Y-57.05
X205.545Y-95.15
X206.18Y-76.1
X210.308Y-57.05
X210.942Y-38.0
X210.942Y-114.2
X215.07Y-76.1
X215.705Y-95.15
X219.832Y-38.0
X220.468Y-57.05
X224.595Y-95.15
X225.23Y-76.1
X229.357Y-57.05
X229.992Y-38.0
X234.12Y-76.1
X234.755Y-95.15
X238.882Y-38.0
X239.517Y-57.05
X243.645Y-95.15
X244.28Y-76.1
X248.407Y-57.05
X249.042Y-38.0
X253.17Y-76.1
X253.805Y-95.15
X257.933Y-38.0
X258.567Y-57.05
X262.695Y-95.15
X263.33Y-76.1
X267.457Y-57.05
X268.092Y-38.0
X272.22Y-76.1
X272.855Y-95.15
X276.982Y-38.0
X277.618Y-57.05
X281.745Y-95.15
X281.745Y-114.2
X282.38Y-76.1
X286.507Y-57.05
X287.142Y-38.0
X291.27Y-76.1
X291.905Y-95.15
X291.905Y-114.2
X296.032Y-38.0
X296.667Y-57.05
X301.43Y-76.1
X305.558Y-57.05
X305.558Y-114.2
X306.192Y-38.0
X307.939Y-95.15
X315.082Y-38.0
X315.717Y-57.05
X315.717Y-114.2
X317.464Y-95.15
X318.099Y-95.15
X322.226Y-76.1
X324.607Y-38.0
X325.243Y-38.0
X327.624Y-95.15
X329.37Y-57.05
X329.37Y-114.2
X332.386Y-76.1
X334.132Y-38.0
X334.132Y-95.15
X334.767Y-38.0
X339.53Y-57.05
X339.53Y-114.2
X344.292Y-38.0
X344.292Y-95.15
X357.945Y-38.0
X357.945Y-57.05
X357.945Y-76.1
X357.945Y-95.15
X357.945Y-114.2
X367.47Y-114.2
X368.105Y-38.0
X368.105Y-57.05
X368.105Y-76.1
X368.105Y-95.15
X368.105Y-114.2
X376.995Y-38.0
X376.995Y-57.05
X376.995Y-76.1
X376.995Y-95.15
X376.995Y-114.2
X377.63Y-114.2
X387.155Y-38.0
X387.155Y-57.05
X387.155Y-76.1
X387.155Y-95.15
X387.155Y-114.2
X396.045Y-38.0
X396.045Y-57.05
X396.045Y-76.1
X396.045Y-95.15
X396.045Y-114.2
X406.205Y-38.0
X406.205Y-57.05
X406.205Y-76.1
X406.205Y-95.15
X406.205Y-114.2
X415.095Y-38.0
X420.175Y-51.97
X420.175Y-61.495
X420.175Y-62.13
X420.175Y-71.02
X420.175Y-71.655
X420.175Y-81.18
X420.175Y-90.07
X420.175Y-99.595
X420.175Y-100.23
X420.175Y-109.12
X420.175Y-109.755
X420.175Y-119.28
X425.255Y-38.0
T2
X72.481Y-102.135
X96.357Y-102.135
X139.187Y-121.185
X148.713Y-121.185
X263.012Y-121.185
X272.538Y-121.185
X310.606Y-102.135
X315.368Y-83.085
X317.75Y-31.015
X334.482Y-102.135
X339.244Y-83.085
X341.625Y-31.015
X360.612Y-121.185
X384.488Y-121.185
X427.16Y-54.637
X427.16Y-78.513
X427.16Y-92.737
X427.16Y-116.613
T3
X72.481Y-86.925
X96.357Y-86.925
X139.188Y-105.975
X148.713Y-105.975
X263.012Y-105.975
X272.537Y-105.975
X310.606Y-86.925
X315.368Y-67.875
X317.75Y-46.225
X334.482Y-86.925
X339.244Y-67.875
X341.625Y-46.225
X360.612Y-105.975
X384.488Y-105.975
X411.95Y-54.637
X411.95Y-78.513
X411.95Y-92.737
X411.95Y-116.613
T4
X29.65Y-38.0
X29.65Y-57.05
X29.65Y-76.1
X29.65Y-95.15
X29.65Y-114.2
X48.7Y-38.0
X48.7Y-57.05
X48.7Y-76.1
X48.7Y-95.15
X48.7Y-114.2
X72.513Y-38.0
X74.894Y-95.15
X77.275Y-57.05
X77.275Y-114.2
X79.656Y-76.1
X84.419Y-95.15
X91.562Y-38.0
X96.325Y-95.15
X101.087Y-57.05
X101.087Y-114.2
X105.85Y-76.1
X110.612Y-38.0
X115.375Y-95.15
X120.137Y-57.05
X124.9Y-76.1
X124.9Y-114.2
X129.662Y-38.0
X134.425Y-95.15
X139.188Y-57.05
X143.95Y-76.1
X148.713Y-38.0
X153.475Y-95.15
X158.237Y-57.05
X163.0Y-76.1
X167.762Y-38.0
X172.525Y-95.15
X177.287Y-57.05
X182.05Y-76.1
X186.812Y-38.0
X191.575Y-95.15
X196.337Y-57.05
X201.1Y-76.1
X205.862Y-38.0
X205.862Y-114.2
X210.625Y-95.15
X215.387Y-57.05
X220.15Y-76.1
X224.912Y-38.0
X229.675Y-95.15
X234.438Y-57.05
X239.2Y-76.1
X243.962Y-38.0
X248.725Y-95.15
X253.487Y-57.05
X258.25Y-76.1
X263.012Y-38.0
X267.775Y-95.15
X272.537Y-57.05
X277.3Y-76.1
X282.062Y-38.0
X286.825Y-95.15
X286.825Y-114.2
X291.587Y-57.05
X296.35Y-76.1
X301.113Y-38.0
X310.637Y-57.05
X310.637Y-114.2
X313.019Y-95.15
X320.162Y-38.0
X322.544Y-95.15
X327.306Y-76.1
X329.688Y-38.0
X334.45Y-57.05
X334.45Y-114.2
X339.212Y-38.0
X339.212Y-95.15
X363.025Y-38.0
X363.025Y-57.05
X363.025Y-76.1
X363.025Y-95.15
X363.025Y-114.2
X372.55Y-114.2
X382.075Y-38.0
X382.075Y-57.05
X382.075Y-76.1
X382.075Y-95.15
X382.075Y-114.2
X401.125Y-38.0
X401.125Y-57.05
X401.125Y-76.1
X401.125Y-95.15
X401.125Y-114.2
X420.175Y-38.0
X420.175Y-57.05
X420.175Y-66.575
X420.175Y-76.1
X420.175Y-95.15
X420.175Y-104.675
X420.175Y-114.2
M30
