%TF.GenerationSoftware,KiCad,Pcbnew,8.0.1*%
%TF.CreationDate,2026-02-15T13:23:44+09:00*%
%TF.ProjectId,W1-AT_RP2040_Yestooth,57312d41-545f-4525-9032-3034305f5965,rev?*%
%TF.SameCoordinates,Original*%
%TF.FileFunction,Soldermask,Bot*%
%TF.FilePolarity,Negative*%
%FSLAX46Y46*%
G04 Gerber Fmt 4.6, Leading zero omitted, Abs format (unit mm)*
G04 Created by KiCad (PCBNEW 8.0.1) date 2026-02-15 13:23:44*
%MOMM*%
%LPD*%
G01*
G04 APERTURE LIST*
G04 Aperture macros list*
%AMRoundRect*
0 Rectangle with rounded corners*
0 $1 Rounding radius*
0 $2 $3 $4 $5 $6 $7 $8 $9 X,Y pos of 4 corners*
0 Add a 4 corners polygon primitive as box body*
4,1,4,$2,$3,$4,$5,$6,$7,$8,$9,$2,$3,0*
0 Add four circle primitives for the rounded corners*
1,1,$1+$1,$2,$3*
1,1,$1+$1,$4,$5*
1,1,$1+$1,$6,$7*
1,1,$1+$1,$8,$9*
0 Add four rect primitives between the rounded corners*
20,1,$1+$1,$2,$3,$4,$5,0*
20,1,$1+$1,$4,$5,$6,$7,0*
20,1,$1+$1,$6,$7,$8,$9,0*
20,1,$1+$1,$8,$9,$2,$3,0*%
G04 Aperture macros list end*
%ADD10C,1.700000*%
%ADD11C,4.000000*%
%ADD12C,2.500000*%
%ADD13RoundRect,0.225000X-0.375000X0.225000X-0.375000X-0.225000X0.375000X-0.225000X0.375000X0.225000X0*%
%ADD14C,3.048000*%
%ADD15C,3.987800*%
%ADD16C,5.000000*%
%ADD17RoundRect,0.225000X0.375000X-0.225000X0.375000X0.225000X-0.375000X0.225000X-0.375000X-0.225000X0*%
%ADD18RoundRect,0.050000X-0.309359X0.238649X0.238649X-0.309359X0.309359X-0.238649X-0.238649X0.309359X0*%
%ADD19RoundRect,0.050000X-0.309359X-0.238649X-0.238649X-0.309359X0.309359X0.238649X0.238649X0.309359X0*%
%ADD20RoundRect,0.144000X-2.059095X0.000000X0.000000X-2.059095X2.059095X0.000000X0.000000X2.059095X0*%
%ADD21RoundRect,0.140000X-0.170000X0.140000X-0.170000X-0.140000X0.170000X-0.140000X0.170000X0.140000X0*%
%ADD22RoundRect,0.135000X-0.185000X0.135000X-0.185000X-0.135000X0.185000X-0.135000X0.185000X0.135000X0*%
%ADD23RoundRect,0.140000X0.170000X-0.140000X0.170000X0.140000X-0.170000X0.140000X-0.170000X-0.140000X0*%
%ADD24RoundRect,0.250000X-0.475000X0.250000X-0.475000X-0.250000X0.475000X-0.250000X0.475000X0.250000X0*%
%ADD25R,1.000000X1.400000*%
%ADD26RoundRect,0.150000X0.650000X0.150000X-0.650000X0.150000X-0.650000X-0.150000X0.650000X-0.150000X0*%
%ADD27RoundRect,0.135000X-0.135000X-0.185000X0.135000X-0.185000X0.135000X0.185000X-0.135000X0.185000X0*%
%ADD28R,1.000000X0.900000*%
%ADD29RoundRect,0.140000X-0.140000X-0.170000X0.140000X-0.170000X0.140000X0.170000X-0.140000X0.170000X0*%
%ADD30RoundRect,0.140000X-0.021213X0.219203X-0.219203X0.021213X0.021213X-0.219203X0.219203X-0.021213X0*%
%ADD31RoundRect,0.250000X0.262500X0.450000X-0.262500X0.450000X-0.262500X-0.450000X0.262500X-0.450000X0*%
%ADD32RoundRect,0.150000X0.587500X0.150000X-0.587500X0.150000X-0.587500X-0.150000X0.587500X-0.150000X0*%
%ADD33RoundRect,0.150000X-0.512500X-0.150000X0.512500X-0.150000X0.512500X0.150000X-0.512500X0.150000X0*%
%ADD34RoundRect,0.140000X0.140000X0.170000X-0.140000X0.170000X-0.140000X-0.170000X0.140000X-0.170000X0*%
%ADD35RoundRect,0.250000X-0.262500X-0.450000X0.262500X-0.450000X0.262500X0.450000X-0.262500X0.450000X0*%
%ADD36R,1.000000X0.750000*%
%ADD37RoundRect,0.140000X0.021213X-0.219203X0.219203X-0.021213X-0.021213X0.219203X-0.219203X0.021213X0*%
%ADD38RoundRect,0.150000X0.150000X0.625000X-0.150000X0.625000X-0.150000X-0.625000X0.150000X-0.625000X0*%
%ADD39RoundRect,0.250000X0.350000X0.650000X-0.350000X0.650000X-0.350000X-0.650000X0.350000X-0.650000X0*%
G04 APERTURE END LIST*
D10*
%TO.C,MX99*%
X305557500Y-114200000D03*
D11*
X310637500Y-114200000D03*
D10*
X315717500Y-114200000D03*
D12*
X306827500Y-111660000D03*
X313177500Y-109120000D03*
%TD*%
%TO.C,MX98*%
X103627500Y-109120000D03*
X97277500Y-111660000D03*
D10*
X106167500Y-114200000D03*
D11*
X101087500Y-114200000D03*
D10*
X96007500Y-114200000D03*
%TD*%
D13*
%TO.C,D43*%
X317737500Y-107100000D03*
X317737500Y-110400000D03*
%TD*%
%TO.C,D21*%
X108187500Y-107100000D03*
X108187500Y-110400000D03*
%TD*%
D10*
%TO.C,MX77*%
X357945000Y-95150000D03*
D11*
X363025000Y-95150000D03*
D10*
X368105000Y-95150000D03*
D12*
X359215000Y-92610000D03*
X365565000Y-90070000D03*
%TD*%
D14*
%TO.C,S7*%
X263012500Y-121184999D03*
D15*
X263012500Y-105975000D03*
D14*
X148712500Y-121184999D03*
D15*
X148712500Y-105975000D03*
%TD*%
D16*
%TO.C,H7*%
X373339465Y-25475001D03*
%TD*%
D10*
%TO.C,MX22*%
X334132500Y-38000000D03*
D11*
X339212500Y-38000000D03*
D10*
X344292500Y-38000000D03*
D12*
X335402500Y-35460000D03*
X341752500Y-32920000D03*
%TD*%
D10*
%TO.C,MX35*%
X267457500Y-57050000D03*
D11*
X272537500Y-57050000D03*
D10*
X277617500Y-57050000D03*
D12*
X268727500Y-54510000D03*
X275077500Y-51970000D03*
%TD*%
D10*
%TO.C,MX50*%
X157920000Y-76100000D03*
D11*
X163000000Y-76100000D03*
D10*
X168080000Y-76100000D03*
D12*
X159190000Y-73560000D03*
X165540000Y-71020000D03*
%TD*%
D10*
%TO.C,MX72*%
X224595000Y-95150000D03*
D11*
X229675000Y-95150000D03*
D10*
X234755000Y-95150000D03*
D12*
X225865000Y-92610000D03*
X232215000Y-90070000D03*
%TD*%
D10*
%TO.C,MX85*%
X43620000Y-114200000D03*
D11*
X48700000Y-114200000D03*
D10*
X53780000Y-114200000D03*
D12*
X44890000Y-111660000D03*
X51240000Y-109120000D03*
%TD*%
D10*
%TO.C,MX23*%
X24570000Y-57050000D03*
D11*
X29650000Y-57050000D03*
D10*
X34730000Y-57050000D03*
D12*
X25840000Y-54510000D03*
X32190000Y-51970000D03*
%TD*%
D10*
%TO.C,MX32*%
X210307500Y-57050000D03*
D11*
X215387500Y-57050000D03*
D10*
X220467500Y-57050000D03*
D12*
X211577500Y-54510000D03*
X217927500Y-51970000D03*
%TD*%
D10*
%TO.C,MX94*%
X69813750Y-95150000D03*
D11*
X74893750Y-95150000D03*
D10*
X79973750Y-95150000D03*
D12*
X71083750Y-92610000D03*
X77433750Y-90070000D03*
%TD*%
D10*
%TO.C,MX8*%
X162682500Y-38000000D03*
D11*
X167762500Y-38000000D03*
D10*
X172842500Y-38000000D03*
D12*
X163952500Y-35460000D03*
X170302500Y-32920000D03*
%TD*%
D10*
%TO.C,MX29*%
X153157500Y-57050000D03*
D11*
X158237500Y-57050000D03*
D10*
X163317500Y-57050000D03*
D12*
X154427500Y-54510000D03*
X160777500Y-51970000D03*
%TD*%
D10*
%TO.C,MX3*%
X67432500Y-38000000D03*
D11*
X72512500Y-38000000D03*
D10*
X77592500Y-38000000D03*
D12*
X68702500Y-35460000D03*
X75052500Y-32920000D03*
%TD*%
D10*
%TO.C,MX84*%
X24570000Y-114200000D03*
D11*
X29650000Y-114200000D03*
D10*
X34730000Y-114200000D03*
D12*
X25840000Y-111660000D03*
X32190000Y-109120000D03*
%TD*%
D10*
%TO.C,MX82*%
X307938750Y-95150000D03*
D11*
X313018750Y-95150000D03*
D10*
X318098750Y-95150000D03*
D12*
X309208750Y-92610000D03*
X315558750Y-90070000D03*
%TD*%
D16*
%TO.C,H14*%
X416979465Y-25465001D03*
%TD*%
D10*
%TO.C,MX14*%
X276982500Y-38000000D03*
D11*
X282062500Y-38000000D03*
D10*
X287142500Y-38000000D03*
D12*
X278252500Y-35460000D03*
X284602500Y-32920000D03*
%TD*%
D10*
%TO.C,MX9*%
X181732500Y-38000000D03*
D11*
X186812500Y-38000000D03*
D10*
X191892500Y-38000000D03*
D12*
X183002500Y-35460000D03*
X189352500Y-32920000D03*
%TD*%
D10*
%TO.C,MX66*%
X110295000Y-95150000D03*
D11*
X115375000Y-95150000D03*
D10*
X120455000Y-95150000D03*
D12*
X111565000Y-92610000D03*
X117915000Y-90070000D03*
%TD*%
D10*
%TO.C,MX36*%
X286507500Y-57050000D03*
D11*
X291587500Y-57050000D03*
D10*
X296667500Y-57050000D03*
D12*
X287777500Y-54510000D03*
X294127500Y-51970000D03*
%TD*%
D10*
%TO.C,MX80*%
X420175000Y-109755000D03*
D11*
X420175000Y-104675000D03*
D10*
X420175000Y-99595000D03*
D12*
X417635000Y-108485000D03*
X415095000Y-102135000D03*
%TD*%
D10*
%TO.C,MX12*%
X238882500Y-38000000D03*
D11*
X243962500Y-38000000D03*
D10*
X249042500Y-38000000D03*
D12*
X240152500Y-35460000D03*
X246502500Y-32920000D03*
%TD*%
D10*
%TO.C,MX73*%
X243645000Y-95150000D03*
D11*
X248725000Y-95150000D03*
D10*
X253805000Y-95150000D03*
D12*
X244915000Y-92610000D03*
X251265000Y-90070000D03*
%TD*%
D16*
%TO.C,H12*%
X72499465Y-25460379D03*
%TD*%
D10*
%TO.C,MX92*%
X396045000Y-114200000D03*
D11*
X401125000Y-114200000D03*
D10*
X406205000Y-114200000D03*
D12*
X397315000Y-111660000D03*
X403665000Y-109120000D03*
%TD*%
D10*
%TO.C,MX60*%
X376995000Y-76100000D03*
D11*
X382075000Y-76100000D03*
D10*
X387155000Y-76100000D03*
D12*
X378265000Y-73560000D03*
X384615000Y-71020000D03*
%TD*%
D10*
%TO.C,MX93*%
X420175000Y-119280000D03*
D11*
X420175000Y-114200000D03*
D10*
X420175000Y-109120000D03*
D12*
X417635000Y-118010000D03*
X415095000Y-111660000D03*
%TD*%
D14*
%TO.C,S8*%
X272537501Y-121185000D03*
D15*
X272537500Y-105975000D03*
X139187500Y-105975000D03*
D14*
X139187499Y-121185000D03*
%TD*%
%TO.C,S1*%
X96356750Y-102135000D03*
D15*
X96356750Y-86925000D03*
D14*
X72480750Y-102135000D03*
D15*
X72480750Y-86925000D03*
%TD*%
D14*
%TO.C,S5*%
X427160000Y-54637000D03*
D15*
X411950000Y-54637000D03*
D14*
X427160000Y-78513000D03*
D15*
X411950000Y-78513000D03*
%TD*%
D10*
%TO.C,MX20*%
X415095000Y-38000000D03*
D11*
X420175000Y-38000000D03*
D10*
X425255000Y-38000000D03*
D12*
X416365000Y-35460000D03*
X422715000Y-32920000D03*
%TD*%
D10*
%TO.C,MX63*%
X24570000Y-95150000D03*
D11*
X29650000Y-95150000D03*
D10*
X34730000Y-95150000D03*
D12*
X25840000Y-92610000D03*
X32190000Y-90070000D03*
%TD*%
D10*
%TO.C,MX17*%
X357945000Y-38000000D03*
D11*
X363025000Y-38000000D03*
D10*
X368105000Y-38000000D03*
D12*
X359215000Y-35460000D03*
X365565000Y-32920000D03*
%TD*%
D10*
%TO.C,MX61*%
X396045000Y-76100000D03*
D11*
X401125000Y-76100000D03*
D10*
X406205000Y-76100000D03*
D12*
X397315000Y-73560000D03*
X403665000Y-71020000D03*
%TD*%
D10*
%TO.C,MX67*%
X129345000Y-95150000D03*
D11*
X134425000Y-95150000D03*
D10*
X139505000Y-95150000D03*
D12*
X130615000Y-92610000D03*
X136965000Y-90070000D03*
%TD*%
D10*
%TO.C,MX1*%
X24570000Y-38000000D03*
D11*
X29650000Y-38000000D03*
D10*
X34730000Y-38000000D03*
D12*
X25840000Y-35460000D03*
X32190000Y-32920000D03*
%TD*%
D10*
%TO.C,MX54*%
X234120000Y-76100000D03*
D11*
X239200000Y-76100000D03*
D10*
X244280000Y-76100000D03*
D12*
X235390000Y-73560000D03*
X241740000Y-71020000D03*
%TD*%
D10*
%TO.C,MX40*%
X376995000Y-57050000D03*
D11*
X382075000Y-57050000D03*
D10*
X387155000Y-57050000D03*
D12*
X378265000Y-54510000D03*
X384615000Y-51970000D03*
%TD*%
D16*
%TO.C,H8*%
X407454767Y-126700379D03*
%TD*%
D10*
%TO.C,MX46*%
X74576250Y-76100000D03*
D11*
X79656250Y-76100000D03*
D10*
X84736250Y-76100000D03*
D12*
X75846250Y-73560000D03*
X82196250Y-71020000D03*
%TD*%
D10*
%TO.C,MX37*%
X305557500Y-57050000D03*
D11*
X310637500Y-57050000D03*
D10*
X315717500Y-57050000D03*
D12*
X306827500Y-54510000D03*
X313177500Y-51970000D03*
%TD*%
D10*
%TO.C,MX6*%
X124582500Y-38000000D03*
D11*
X129662500Y-38000000D03*
D10*
X134742500Y-38000000D03*
D12*
X125852500Y-35460000D03*
X132202500Y-32920000D03*
%TD*%
D10*
%TO.C,MX70*%
X186495000Y-95150000D03*
D11*
X191575000Y-95150000D03*
D10*
X196655000Y-95150000D03*
D12*
X187765000Y-92610000D03*
X194115000Y-90070000D03*
%TD*%
D10*
%TO.C,MX41*%
X396045000Y-57050000D03*
D11*
X401125000Y-57050000D03*
D10*
X406205000Y-57050000D03*
D12*
X397315000Y-54510000D03*
X403665000Y-51970000D03*
%TD*%
D10*
%TO.C,MX95*%
X91245000Y-95150000D03*
D11*
X96325000Y-95150000D03*
D10*
X101405000Y-95150000D03*
D12*
X92515000Y-92610000D03*
X98865000Y-90070000D03*
%TD*%
D10*
%TO.C,MX44*%
X24570000Y-76100000D03*
D11*
X29650000Y-76100000D03*
D10*
X34730000Y-76100000D03*
D12*
X25840000Y-73560000D03*
X32190000Y-71020000D03*
%TD*%
D10*
%TO.C,MX74*%
X262695000Y-95150000D03*
D11*
X267775000Y-95150000D03*
D10*
X272855000Y-95150000D03*
D12*
X263965000Y-92610000D03*
X270315000Y-90070000D03*
%TD*%
D10*
%TO.C,MX71*%
X205545000Y-95150000D03*
D11*
X210625000Y-95150000D03*
D10*
X215705000Y-95150000D03*
D12*
X206815000Y-92610000D03*
X213165000Y-90070000D03*
%TD*%
D14*
%TO.C,S4*%
X339244250Y-83085000D03*
D15*
X339244250Y-67875000D03*
D14*
X315368250Y-83085000D03*
D15*
X315368250Y-67875000D03*
%TD*%
D16*
%TO.C,H2*%
X373319465Y-126710379D03*
%TD*%
D10*
%TO.C,MX57*%
X291270000Y-76100000D03*
D11*
X296350000Y-76100000D03*
D10*
X301430000Y-76100000D03*
D12*
X292540000Y-73560000D03*
X298890000Y-71020000D03*
%TD*%
D10*
%TO.C,MX21*%
X315082500Y-38000000D03*
D11*
X320162500Y-38000000D03*
D10*
X325242500Y-38000000D03*
D12*
X316352500Y-35460000D03*
X322702500Y-32920000D03*
%TD*%
D10*
%TO.C,MX87*%
X119820000Y-114200000D03*
D11*
X124900000Y-114200000D03*
D10*
X129980000Y-114200000D03*
D12*
X121090000Y-111660000D03*
X127440000Y-109120000D03*
%TD*%
D10*
%TO.C,MX76*%
X317463750Y-95150000D03*
D11*
X322543750Y-95150000D03*
D10*
X327623750Y-95150000D03*
D12*
X318733750Y-92610000D03*
X325083750Y-90070000D03*
%TD*%
D10*
%TO.C,MX78*%
X376995000Y-95150000D03*
D11*
X382075000Y-95150000D03*
D10*
X387155000Y-95150000D03*
D12*
X378265000Y-92610000D03*
X384615000Y-90070000D03*
%TD*%
D10*
%TO.C,MX31*%
X191257500Y-57050000D03*
D11*
X196337500Y-57050000D03*
D10*
X201417500Y-57050000D03*
D12*
X192527500Y-54510000D03*
X198877500Y-51970000D03*
%TD*%
D10*
%TO.C,MX52*%
X196020000Y-76100000D03*
D11*
X201100000Y-76100000D03*
D10*
X206180000Y-76100000D03*
D12*
X197290000Y-73560000D03*
X203640000Y-71020000D03*
%TD*%
D10*
%TO.C,MX11*%
X219832500Y-38000000D03*
D11*
X224912500Y-38000000D03*
D10*
X229992500Y-38000000D03*
D12*
X221102500Y-35460000D03*
X227452500Y-32920000D03*
%TD*%
D10*
%TO.C,MX81*%
X420175000Y-100230000D03*
D11*
X420175000Y-95150000D03*
D10*
X420175000Y-90070000D03*
D12*
X417635000Y-98960000D03*
X415095000Y-92610000D03*
%TD*%
D10*
%TO.C,MX30*%
X172207500Y-57050000D03*
D11*
X177287500Y-57050000D03*
D10*
X182367500Y-57050000D03*
D12*
X173477500Y-54510000D03*
X179827500Y-51970000D03*
%TD*%
D16*
%TO.C,H5*%
X143939465Y-126705001D03*
%TD*%
D14*
%TO.C,S9*%
X384488000Y-121185000D03*
D15*
X384488000Y-105975000D03*
D14*
X360612000Y-121185000D03*
D15*
X360612000Y-105975000D03*
%TD*%
D10*
%TO.C,MX64*%
X43620000Y-95150000D03*
D11*
X48700000Y-95150000D03*
D10*
X53780000Y-95150000D03*
D12*
X44890000Y-92610000D03*
X51240000Y-90070000D03*
%TD*%
D10*
%TO.C,MX34*%
X248407500Y-57050000D03*
D11*
X253487500Y-57050000D03*
D10*
X258567500Y-57050000D03*
D12*
X249677500Y-54510000D03*
X256027500Y-51970000D03*
%TD*%
D10*
%TO.C,MX89*%
X281745000Y-114200000D03*
D11*
X286825000Y-114200000D03*
D10*
X291905000Y-114200000D03*
D12*
X283015000Y-111660000D03*
X289365000Y-109120000D03*
%TD*%
D10*
%TO.C,MX39*%
X357945000Y-57050000D03*
D11*
X363025000Y-57050000D03*
D10*
X368105000Y-57050000D03*
D12*
X359215000Y-54510000D03*
X365565000Y-51970000D03*
%TD*%
D10*
%TO.C,MX96*%
X357945000Y-114200000D03*
D11*
X363025000Y-114200000D03*
D10*
X368105000Y-114200000D03*
D12*
X359215000Y-111660000D03*
X365565000Y-109120000D03*
%TD*%
D10*
%TO.C,MX5*%
X105532500Y-38000000D03*
D11*
X110612500Y-38000000D03*
D10*
X115692500Y-38000000D03*
D12*
X106802500Y-35460000D03*
X113152500Y-32920000D03*
%TD*%
D10*
%TO.C,MX4*%
X86482500Y-38000000D03*
D11*
X91562500Y-38000000D03*
D10*
X96642500Y-38000000D03*
D12*
X87752500Y-35460000D03*
X94102500Y-32920000D03*
%TD*%
D10*
%TO.C,MX26*%
X96007500Y-57050000D03*
D11*
X101087500Y-57050000D03*
D10*
X106167500Y-57050000D03*
D12*
X97277500Y-54510000D03*
X103627500Y-51970000D03*
%TD*%
D10*
%TO.C,MX62*%
X420175000Y-81180000D03*
D11*
X420175000Y-76100000D03*
D10*
X420175000Y-71020000D03*
D12*
X417635000Y-79910000D03*
X415095000Y-73560000D03*
%TD*%
D16*
%TO.C,H6*%
X151954767Y-25460379D03*
%TD*%
D10*
%TO.C,MX13*%
X257932500Y-38000000D03*
D11*
X263012500Y-38000000D03*
D10*
X268092500Y-38000000D03*
D12*
X259202500Y-35460000D03*
X265552500Y-32920000D03*
%TD*%
D10*
%TO.C,MX79*%
X396045000Y-95150000D03*
D11*
X401125000Y-95150000D03*
D10*
X406205000Y-95150000D03*
D12*
X397315000Y-92610000D03*
X403665000Y-90070000D03*
%TD*%
D14*
%TO.C,S6*%
X427160000Y-92737000D03*
D15*
X411950000Y-92737000D03*
D14*
X427160000Y-116613000D03*
D15*
X411950000Y-116613000D03*
%TD*%
D10*
%TO.C,MX53*%
X215070000Y-76100000D03*
D11*
X220150000Y-76100000D03*
D10*
X225230000Y-76100000D03*
D12*
X216340000Y-73560000D03*
X222690000Y-71020000D03*
%TD*%
D10*
%TO.C,MX10*%
X200782500Y-38000000D03*
D11*
X205862500Y-38000000D03*
D10*
X210942500Y-38000000D03*
D12*
X202052500Y-35460000D03*
X208402500Y-32920000D03*
%TD*%
D16*
%TO.C,H10*%
X316961954Y-126715001D03*
%TD*%
D10*
%TO.C,MX2*%
X43620000Y-38000000D03*
D11*
X48700000Y-38000000D03*
D10*
X53780000Y-38000000D03*
D12*
X44890000Y-35460000D03*
X51240000Y-32920000D03*
%TD*%
D10*
%TO.C,MX24*%
X43620000Y-57050000D03*
D11*
X48700000Y-57050000D03*
D10*
X53780000Y-57050000D03*
D12*
X44890000Y-54510000D03*
X51240000Y-51970000D03*
%TD*%
D10*
%TO.C,MX42*%
X420175000Y-71655000D03*
D11*
X420175000Y-66575000D03*
D10*
X420175000Y-61495000D03*
D12*
X417635000Y-70385000D03*
X415095000Y-64035000D03*
%TD*%
D10*
%TO.C,MX55*%
X253170000Y-76100000D03*
D11*
X258250000Y-76100000D03*
D10*
X263330000Y-76100000D03*
D12*
X254440000Y-73560000D03*
X260790000Y-71020000D03*
%TD*%
D10*
%TO.C,MX38*%
X329370000Y-57050000D03*
D11*
X334450000Y-57050000D03*
D10*
X339530000Y-57050000D03*
D12*
X330640000Y-54510000D03*
X336990000Y-51970000D03*
%TD*%
D10*
%TO.C,MX16*%
X324607500Y-38000000D03*
D11*
X329687500Y-38000000D03*
D10*
X334767500Y-38000000D03*
D12*
X325877500Y-35460000D03*
X332227500Y-32920000D03*
%TD*%
D10*
%TO.C,MX56*%
X272220000Y-76100000D03*
D11*
X277300000Y-76100000D03*
D10*
X282380000Y-76100000D03*
D12*
X273490000Y-73560000D03*
X279840000Y-71020000D03*
%TD*%
D10*
%TO.C,MX25*%
X72195000Y-57050000D03*
D11*
X77275000Y-57050000D03*
D10*
X82355000Y-57050000D03*
D12*
X73465000Y-54510000D03*
X79815000Y-51970000D03*
%TD*%
D16*
%TO.C,H3*%
X43119465Y-126705001D03*
%TD*%
%TO.C,H13*%
X240674767Y-25450379D03*
%TD*%
D10*
%TO.C,MX27*%
X115057500Y-57050000D03*
D11*
X120137500Y-57050000D03*
D10*
X125217500Y-57050000D03*
D12*
X116327500Y-54510000D03*
X122677500Y-51970000D03*
%TD*%
D10*
%TO.C,MX49*%
X138870000Y-76100000D03*
D11*
X143950000Y-76100000D03*
D10*
X149030000Y-76100000D03*
D12*
X140140000Y-73560000D03*
X146490000Y-71020000D03*
%TD*%
D16*
%TO.C,H4*%
X70909465Y-126720379D03*
%TD*%
D10*
%TO.C,MX59*%
X357945000Y-76100000D03*
D11*
X363025000Y-76100000D03*
D10*
X368105000Y-76100000D03*
D12*
X359215000Y-73560000D03*
X365565000Y-71020000D03*
%TD*%
D10*
%TO.C,MX47*%
X100770000Y-76100000D03*
D11*
X105850000Y-76100000D03*
D10*
X110930000Y-76100000D03*
D12*
X102040000Y-73560000D03*
X108390000Y-71020000D03*
%TD*%
D10*
%TO.C,MX48*%
X119820000Y-76100000D03*
D11*
X124900000Y-76100000D03*
D10*
X129980000Y-76100000D03*
D12*
X121090000Y-73560000D03*
X127440000Y-71020000D03*
%TD*%
D10*
%TO.C,MX45*%
X43620000Y-76100000D03*
D11*
X48700000Y-76100000D03*
D10*
X53780000Y-76100000D03*
D12*
X44890000Y-73560000D03*
X51240000Y-71020000D03*
%TD*%
D10*
%TO.C,MX18*%
X376995000Y-38000000D03*
D11*
X382075000Y-38000000D03*
D10*
X387155000Y-38000000D03*
D12*
X378265000Y-35460000D03*
X384615000Y-32920000D03*
%TD*%
D14*
%TO.C,S2*%
X334481750Y-102135000D03*
D15*
X334481750Y-86925000D03*
D14*
X310605750Y-102135000D03*
D15*
X310605750Y-86925000D03*
%TD*%
D10*
%TO.C,MX83*%
X334132500Y-95150000D03*
D11*
X339212500Y-95150000D03*
D10*
X344292500Y-95150000D03*
D12*
X335402500Y-92610000D03*
X341752500Y-90070000D03*
%TD*%
D10*
%TO.C,MX58*%
X322226250Y-76100000D03*
D11*
X327306250Y-76100000D03*
D10*
X332386250Y-76100000D03*
D12*
X323496250Y-73560000D03*
X329846250Y-71020000D03*
%TD*%
D14*
%TO.C,S3*%
X317749500Y-31015000D03*
D15*
X317749500Y-46225000D03*
D14*
X341625500Y-31015000D03*
D15*
X341625500Y-46225000D03*
%TD*%
D10*
%TO.C,MX69*%
X167445000Y-95150000D03*
D11*
X172525000Y-95150000D03*
D10*
X177605000Y-95150000D03*
D12*
X168715000Y-92610000D03*
X175065000Y-90070000D03*
%TD*%
D10*
%TO.C,MX88*%
X200782500Y-114200000D03*
D11*
X205862500Y-114200000D03*
D10*
X210942500Y-114200000D03*
D12*
X202052500Y-111660000D03*
X208402500Y-109120000D03*
%TD*%
D10*
%TO.C,MX33*%
X229357500Y-57050000D03*
D11*
X234437500Y-57050000D03*
D10*
X239517500Y-57050000D03*
D12*
X230627500Y-54510000D03*
X236977500Y-51970000D03*
%TD*%
D10*
%TO.C,MX43*%
X420175000Y-62130000D03*
D11*
X420175000Y-57050000D03*
D10*
X420175000Y-51970000D03*
D12*
X417635000Y-60860000D03*
X415095000Y-54510000D03*
%TD*%
D10*
%TO.C,MX68*%
X148395000Y-95150000D03*
D11*
X153475000Y-95150000D03*
D10*
X158555000Y-95150000D03*
D12*
X149665000Y-92610000D03*
X156015000Y-90070000D03*
%TD*%
D10*
%TO.C,MX7*%
X143632500Y-38000000D03*
D11*
X148712500Y-38000000D03*
D10*
X153792500Y-38000000D03*
D12*
X144902500Y-35460000D03*
X151252500Y-32920000D03*
%TD*%
D10*
%TO.C,MX51*%
X176970000Y-76100000D03*
D11*
X182050000Y-76100000D03*
D10*
X187130000Y-76100000D03*
D12*
X178240000Y-73560000D03*
X184590000Y-71020000D03*
%TD*%
D10*
%TO.C,MX97*%
X376995000Y-114200000D03*
D11*
X382075000Y-114200000D03*
D10*
X387155000Y-114200000D03*
D12*
X378265000Y-111660000D03*
X384615000Y-109120000D03*
%TD*%
D10*
%TO.C,MX86*%
X72195000Y-114200000D03*
D11*
X77275000Y-114200000D03*
D10*
X82355000Y-114200000D03*
D12*
X73465000Y-111660000D03*
X79815000Y-109120000D03*
%TD*%
D16*
%TO.C,H11*%
X35989465Y-25450379D03*
%TD*%
D10*
%TO.C,MX75*%
X281745000Y-95150000D03*
D11*
X286825000Y-95150000D03*
D10*
X291905000Y-95150000D03*
D12*
X283015000Y-92610000D03*
X289365000Y-90070000D03*
%TD*%
D10*
%TO.C,MX65*%
X79338750Y-95150000D03*
D11*
X84418750Y-95150000D03*
D10*
X89498750Y-95150000D03*
D12*
X80608750Y-92610000D03*
X86958750Y-90070000D03*
%TD*%
D16*
%TO.C,H10*%
X267749465Y-126715001D03*
%TD*%
D10*
%TO.C,MX15*%
X296032500Y-38000000D03*
D11*
X301112500Y-38000000D03*
D10*
X306192500Y-38000000D03*
D12*
X297302500Y-35460000D03*
X303652500Y-32920000D03*
%TD*%
D10*
%TO.C,MX90*%
X329370000Y-114200000D03*
D11*
X334450000Y-114200000D03*
D10*
X339530000Y-114200000D03*
D12*
X330640000Y-111660000D03*
X336990000Y-109120000D03*
%TD*%
D10*
%TO.C,MX28*%
X134107500Y-57050000D03*
D11*
X139187500Y-57050000D03*
D10*
X144267500Y-57050000D03*
D12*
X135377500Y-54510000D03*
X141727500Y-51970000D03*
%TD*%
D10*
%TO.C,MX91*%
X367470000Y-114200000D03*
D11*
X372550000Y-114200000D03*
D10*
X377630000Y-114200000D03*
D12*
X368740000Y-111660000D03*
X375090000Y-109120000D03*
%TD*%
D16*
%TO.C,H1*%
X329669465Y-25455001D03*
%TD*%
D10*
%TO.C,MX19*%
X396045000Y-38000000D03*
D11*
X401125000Y-38000000D03*
D10*
X406205000Y-38000000D03*
D12*
X397315000Y-35460000D03*
X403665000Y-32920000D03*
%TD*%
D13*
%TO.C,D26*%
X108187500Y-49950000D03*
X108187500Y-53250000D03*
%TD*%
D17*
%TO.C,D16*%
X313075000Y-35800000D03*
X313075000Y-32500000D03*
%TD*%
D18*
%TO.C,U3*%
X230074428Y-114502854D03*
X230357271Y-114220011D03*
X230640113Y-113937169D03*
X230922956Y-113654326D03*
X231205799Y-113371483D03*
X231488641Y-113088641D03*
X231771484Y-112805798D03*
X232054327Y-112522955D03*
X232337170Y-112240112D03*
X232620012Y-111957270D03*
X232902855Y-111674427D03*
X233185698Y-111391584D03*
X233468540Y-111108742D03*
X233751383Y-110825899D03*
D19*
X234935787Y-110825899D03*
X235218630Y-111108742D03*
X235501472Y-111391584D03*
X235784315Y-111674427D03*
X236067158Y-111957270D03*
X236350000Y-112240112D03*
X236632843Y-112522955D03*
X236915686Y-112805798D03*
X237198529Y-113088641D03*
X237481371Y-113371483D03*
X237764214Y-113654326D03*
X238047057Y-113937169D03*
X238329899Y-114220011D03*
X238612742Y-114502854D03*
D18*
X238612742Y-115687258D03*
X238329899Y-115970101D03*
X238047057Y-116252943D03*
X237764214Y-116535786D03*
X237481371Y-116818629D03*
X237198529Y-117101471D03*
X236915686Y-117384314D03*
X236632843Y-117667157D03*
X236350000Y-117950000D03*
X236067158Y-118232842D03*
X235784315Y-118515685D03*
X235501472Y-118798528D03*
X235218630Y-119081370D03*
X234935787Y-119364213D03*
D19*
X233751383Y-119364213D03*
X233468540Y-119081370D03*
X233185698Y-118798528D03*
X232902855Y-118515685D03*
X232620012Y-118232842D03*
X232337170Y-117950000D03*
X232054327Y-117667157D03*
X231771484Y-117384314D03*
X231488641Y-117101471D03*
X231205799Y-116818629D03*
X230922956Y-116535786D03*
X230640113Y-116252943D03*
X230357271Y-115970101D03*
X230074428Y-115687258D03*
D20*
X234343585Y-115095056D03*
%TD*%
D13*
%TO.C,D24*%
X55800000Y-49950000D03*
X55800000Y-53250000D03*
%TD*%
D21*
%TO.C,C10*%
X228050000Y-120920000D03*
X228050000Y-121880000D03*
%TD*%
D13*
%TO.C,D60*%
X389175000Y-69000000D03*
X389175000Y-72300000D03*
%TD*%
%TO.C,D75*%
X293925000Y-88050000D03*
X293925000Y-91350000D03*
%TD*%
%TO.C,D52*%
X208200000Y-69000000D03*
X208200000Y-72300000D03*
%TD*%
%TO.C,D28*%
X146287500Y-49950000D03*
X146287500Y-53250000D03*
%TD*%
%TO.C,D56*%
X284400000Y-69000000D03*
X284400000Y-72300000D03*
%TD*%
D22*
%TO.C,R5*%
X241247140Y-108915001D03*
X241247140Y-109934999D03*
%TD*%
D13*
%TO.C,D35*%
X279637500Y-49950000D03*
X279637500Y-53250000D03*
%TD*%
%TO.C,D65*%
X89775000Y-88050000D03*
X89775000Y-91350000D03*
%TD*%
D17*
%TO.C,D20*%
X413275000Y-35800000D03*
X413275000Y-32500000D03*
%TD*%
%TO.C,D13*%
X270112500Y-35800000D03*
X270112500Y-32500000D03*
%TD*%
D23*
%TO.C,C1*%
X229175000Y-121880000D03*
X229175000Y-120920000D03*
%TD*%
%TO.C,C2*%
X236450000Y-122005000D03*
X236450000Y-121045000D03*
%TD*%
D17*
%TO.C,D3*%
X79612500Y-35800000D03*
X79612500Y-32500000D03*
%TD*%
D13*
%TO.C,D59*%
X370125000Y-69000000D03*
X370125000Y-72300000D03*
%TD*%
D17*
%TO.C,D97*%
X389175000Y-110400000D03*
X389175000Y-107100000D03*
%TD*%
D13*
%TO.C,D68*%
X160575000Y-88050000D03*
X160575000Y-91350000D03*
%TD*%
D21*
%TO.C,C14*%
X232350000Y-121045000D03*
X232350000Y-122005000D03*
%TD*%
D13*
%TO.C,D80*%
X413175000Y-86500000D03*
X413175000Y-89800000D03*
%TD*%
D17*
%TO.C,D4*%
X98662500Y-35800000D03*
X98662500Y-32500000D03*
%TD*%
D24*
%TO.C,R7*%
X223175000Y-109950000D03*
X223175000Y-111850000D03*
%TD*%
D13*
%TO.C,D49*%
X151050000Y-69000000D03*
X151050000Y-72300000D03*
%TD*%
D25*
%TO.C,LED2*%
X364274999Y-42500000D03*
X361775001Y-42500000D03*
%TD*%
D13*
%TO.C,D61*%
X408225000Y-69000000D03*
X408225000Y-72300000D03*
%TD*%
D17*
%TO.C,D6*%
X136762500Y-35800000D03*
X136762500Y-32500000D03*
%TD*%
D13*
%TO.C,D83*%
X346312500Y-88050000D03*
X346312500Y-91350000D03*
%TD*%
D21*
%TO.C,C4*%
X231475000Y-109320000D03*
X231475000Y-110280000D03*
%TD*%
D13*
%TO.C,D93*%
X413175000Y-105550000D03*
X413175000Y-108850000D03*
%TD*%
%TO.C,D85*%
X55800000Y-107100000D03*
X55800000Y-110400000D03*
%TD*%
%TO.C,D36*%
X298687500Y-49950000D03*
X298687500Y-53250000D03*
%TD*%
%TO.C,D58*%
X334406250Y-69000000D03*
X334406250Y-72300000D03*
%TD*%
%TO.C,D84*%
X36750000Y-107100000D03*
X36750000Y-110400000D03*
%TD*%
%TO.C,D33*%
X241537500Y-49950000D03*
X241537500Y-53250000D03*
%TD*%
D17*
%TO.C,D18*%
X389175000Y-35800000D03*
X389175000Y-32500000D03*
%TD*%
D26*
%TO.C,U2*%
X225625000Y-117120000D03*
X225625000Y-118390000D03*
X225625000Y-119660000D03*
X225625000Y-120930000D03*
X218425000Y-120930000D03*
X218425000Y-119660000D03*
X218425000Y-118390000D03*
X218425000Y-117120000D03*
%TD*%
D27*
%TO.C,R3*%
X224540001Y-115475000D03*
X225559999Y-115475000D03*
%TD*%
D23*
%TO.C,C16*%
X242447140Y-109905000D03*
X242447140Y-108945000D03*
%TD*%
D13*
%TO.C,D31*%
X203437500Y-49950000D03*
X203437500Y-53250000D03*
%TD*%
D17*
%TO.C,D1*%
X36750000Y-35800000D03*
X36750000Y-32500000D03*
%TD*%
D13*
%TO.C,D77*%
X370125000Y-88050000D03*
X370125000Y-91350000D03*
%TD*%
%TO.C,D45*%
X55800000Y-69000000D03*
X55800000Y-72300000D03*
%TD*%
D28*
%TO.C,Y1*%
X246200000Y-110200000D03*
X244050000Y-110200000D03*
X244050000Y-108650000D03*
X246200000Y-108650000D03*
%TD*%
D17*
%TO.C,D17*%
X370125000Y-35800000D03*
X370125000Y-32500000D03*
%TD*%
D13*
%TO.C,D42*%
X413175000Y-48400000D03*
X413175000Y-51700000D03*
%TD*%
%TO.C,D76*%
X329643750Y-88050000D03*
X329643750Y-91350000D03*
%TD*%
D24*
%TO.C,R6*%
X225225000Y-109950000D03*
X225225000Y-111850000D03*
%TD*%
D13*
%TO.C,D47*%
X112950000Y-69000000D03*
X112950000Y-72300000D03*
%TD*%
D17*
%TO.C,D11*%
X232012500Y-35800000D03*
X232012500Y-32500000D03*
%TD*%
D29*
%TO.C,C17*%
X211945000Y-78825000D03*
X212905000Y-78825000D03*
%TD*%
D13*
%TO.C,D90*%
X341550000Y-107100000D03*
X341550000Y-110400000D03*
%TD*%
D17*
%TO.C,D12*%
X251062500Y-35800000D03*
X251062500Y-32500000D03*
%TD*%
%TO.C,D19*%
X408225000Y-35800000D03*
X408225000Y-32500000D03*
%TD*%
D30*
%TO.C,C6*%
X239361091Y-110664340D03*
X238682269Y-111343162D03*
%TD*%
D17*
%TO.C,D2*%
X55800000Y-35800000D03*
X55800000Y-32500000D03*
%TD*%
D31*
%TO.C,R1*%
X84428750Y-80600000D03*
X82603750Y-80600000D03*
%TD*%
D17*
%TO.C,D22*%
X346312500Y-35800000D03*
X346312500Y-32500000D03*
%TD*%
%TO.C,D5*%
X117712500Y-35800000D03*
X117712500Y-32500000D03*
%TD*%
D32*
%TO.C,U4*%
X210212500Y-76912500D03*
X210212500Y-78812500D03*
X208337500Y-77862500D03*
%TD*%
D13*
%TO.C,D74*%
X274875000Y-88050000D03*
X274875000Y-91350000D03*
%TD*%
%TO.C,D66*%
X122475000Y-88050000D03*
X122475000Y-91350000D03*
%TD*%
D25*
%TO.C,LED1*%
X78406251Y-80600000D03*
X80906249Y-80600000D03*
%TD*%
D13*
%TO.C,D57*%
X303450000Y-69000000D03*
X303450000Y-72300000D03*
%TD*%
%TO.C,D69*%
X179625000Y-88050000D03*
X179625000Y-91350000D03*
%TD*%
D33*
%TO.C,U5*%
X216237500Y-67262499D03*
X216237500Y-66312500D03*
X216237500Y-65362501D03*
X218512500Y-65362501D03*
X218512500Y-66312500D03*
X218512500Y-67262499D03*
%TD*%
D34*
%TO.C,C5*%
X240330000Y-117875000D03*
X239370000Y-117875000D03*
%TD*%
D17*
%TO.C,D9*%
X193912500Y-35800000D03*
X193912500Y-32500000D03*
%TD*%
D13*
%TO.C,D64*%
X55800000Y-88050000D03*
X55800000Y-91350000D03*
%TD*%
%TO.C,D67*%
X141525000Y-88050000D03*
X141525000Y-91350000D03*
%TD*%
%TO.C,D72*%
X236775000Y-88050000D03*
X236775000Y-91350000D03*
%TD*%
%TO.C,D86*%
X84375000Y-107100000D03*
X84375000Y-110400000D03*
%TD*%
D23*
%TO.C,C3*%
X235425000Y-122005000D03*
X235425000Y-121045000D03*
%TD*%
D17*
%TO.C,D10*%
X212962500Y-35800000D03*
X212962500Y-32500000D03*
%TD*%
D13*
%TO.C,D92*%
X408225000Y-107100000D03*
X408225000Y-110400000D03*
%TD*%
%TO.C,D78*%
X389175000Y-88050000D03*
X389175000Y-91350000D03*
%TD*%
D35*
%TO.C,R2*%
X358252500Y-42500000D03*
X360077500Y-42500000D03*
%TD*%
D13*
%TO.C,D73*%
X255825000Y-88050000D03*
X255825000Y-91350000D03*
%TD*%
D17*
%TO.C,D7*%
X155812500Y-35800000D03*
X155812500Y-32500000D03*
%TD*%
D13*
%TO.C,D54*%
X246300000Y-69000000D03*
X246300000Y-72300000D03*
%TD*%
D36*
%TO.C,BOOTSEL1*%
X221125000Y-111025000D03*
X215125000Y-111025000D03*
X221125000Y-114775000D03*
X215125000Y-114775000D03*
%TD*%
D13*
%TO.C,D25*%
X84375000Y-49950000D03*
X84375000Y-53250000D03*
%TD*%
D25*
%TO.C,LED3*%
X383324999Y-42500000D03*
X380825001Y-42500000D03*
%TD*%
D13*
%TO.C,D30*%
X184387500Y-49950000D03*
X184387500Y-53250000D03*
%TD*%
%TO.C,D41*%
X408225000Y-49950000D03*
X408225000Y-53250000D03*
%TD*%
%TO.C,D95*%
X103425000Y-88050000D03*
X103425000Y-91350000D03*
%TD*%
%TO.C,D39*%
X370125000Y-49950000D03*
X370125000Y-53250000D03*
%TD*%
D21*
%TO.C,C15*%
X247772139Y-108945000D03*
X247772139Y-109905000D03*
%TD*%
D13*
%TO.C,D71*%
X217725000Y-88050000D03*
X217725000Y-91350000D03*
%TD*%
%TO.C,D89*%
X293925000Y-107100000D03*
X293925000Y-110400000D03*
%TD*%
%TO.C,D32*%
X222487500Y-49950000D03*
X222487500Y-53250000D03*
%TD*%
%TO.C,D50*%
X170100000Y-69000000D03*
X170100000Y-72300000D03*
%TD*%
D35*
%TO.C,R8*%
X377302500Y-42500000D03*
X379127500Y-42500000D03*
%TD*%
D13*
%TO.C,D55*%
X265350000Y-69000000D03*
X265350000Y-72300000D03*
%TD*%
D29*
%TO.C,C7*%
X227195000Y-114225000D03*
X228155000Y-114225000D03*
%TD*%
D21*
%TO.C,C9*%
X233375000Y-121045000D03*
X233375000Y-122005000D03*
%TD*%
D37*
%TO.C,C11*%
X239410589Y-112064411D03*
X240089411Y-111385589D03*
%TD*%
D13*
%TO.C,D88*%
X212962500Y-107100000D03*
X212962500Y-110400000D03*
%TD*%
D27*
%TO.C,R4*%
X224540001Y-114425000D03*
X225559999Y-114425000D03*
%TD*%
D17*
%TO.C,D14*%
X289162500Y-35800000D03*
X289162500Y-32500000D03*
%TD*%
D13*
%TO.C,D27*%
X127237500Y-49950000D03*
X127237500Y-53250000D03*
%TD*%
%TO.C,D40*%
X389175000Y-49950000D03*
X389175000Y-53250000D03*
%TD*%
%TO.C,D44*%
X36750000Y-69000000D03*
X36750000Y-72300000D03*
%TD*%
D29*
%TO.C,C18*%
X211937500Y-77787500D03*
X212897500Y-77787500D03*
%TD*%
D13*
%TO.C,D70*%
X198675000Y-88050000D03*
X198675000Y-91350000D03*
%TD*%
%TO.C,D46*%
X86756250Y-69000000D03*
X86756250Y-72300000D03*
%TD*%
%TO.C,D38*%
X341550000Y-49950000D03*
X341550000Y-53250000D03*
%TD*%
%TO.C,D48*%
X132000000Y-69000000D03*
X132000000Y-72300000D03*
%TD*%
%TO.C,D51*%
X189150000Y-69000000D03*
X189150000Y-72300000D03*
%TD*%
D38*
%TO.C,J1*%
X232875000Y-61075000D03*
X231875000Y-61075000D03*
X230875000Y-61075000D03*
X229875000Y-61075000D03*
D39*
X234175000Y-64950000D03*
X228575000Y-64950000D03*
%TD*%
D13*
%TO.C,D87*%
X132000000Y-107100000D03*
X132000000Y-110400000D03*
%TD*%
%TO.C,D29*%
X165337500Y-49950000D03*
X165337500Y-53250000D03*
%TD*%
%TO.C,D62*%
X413175000Y-67450000D03*
X413175000Y-70750000D03*
%TD*%
D17*
%TO.C,D15*%
X308212500Y-35800000D03*
X308212500Y-32500000D03*
%TD*%
D34*
%TO.C,C8*%
X216830000Y-117125000D03*
X215870000Y-117125000D03*
%TD*%
D13*
%TO.C,D53*%
X227250000Y-69000000D03*
X227250000Y-72300000D03*
%TD*%
D17*
%TO.C,D8*%
X174862500Y-35800000D03*
X174862500Y-32500000D03*
%TD*%
D13*
%TO.C,D37*%
X317850000Y-49950000D03*
X317850000Y-53250000D03*
%TD*%
%TO.C,D23*%
X36750000Y-49950000D03*
X36750000Y-53250000D03*
%TD*%
%TO.C,D63*%
X36750000Y-88050000D03*
X36750000Y-91350000D03*
%TD*%
%TO.C,D91*%
X372450000Y-107100000D03*
X372450000Y-110400000D03*
%TD*%
%TO.C,D34*%
X260587500Y-49950000D03*
X260587500Y-53250000D03*
%TD*%
%TO.C,D79*%
X408225000Y-88050000D03*
X408225000Y-91350000D03*
%TD*%
M02*
