M48
; DRILL file {KiCad 8.0.1} date 2026-02-15T13:23:46+0900
; FORMAT={-:-/ absolute / metric / decimal}
; #@! TF.CreationDate,2026-02-15T13:23:46+09:00
; #@! TF.GenerationSoftware,Kicad,Pcbnew,8.0.1
; #@! TF.FileFunction,Plated,1,2,PTH
FMAT,2
METRIC
; #@! TA.AperFunction,Plated,PTH,ViaDrill
T1C0.300
; #@! TA.AperFunction,Plated,PTH,ComponentDrill
T2C0.350
; #@! TA.AperFunction,Plated,PTH,ComponentDrill
T3C1.800
; #@! TA.AperFunction,Plated,PTH,ComponentDrill
T4C3.000
%
G90
G05
T1
X25.995Y-49.2
X45.045Y-48.6
X68.858Y-48.2
X90.559Y-47.791
X109.209Y-47.391
X127.859Y-46.991
X146.509Y-46.591
X165.146Y-46.179
X183.55Y-87.1
X183.55Y-121.9
X183.809Y-45.791
X202.459Y-45.391
X210.275Y-68.05
X210.275Y-77.862
X211.945Y-78.825
X215.125Y-111.025
X215.3Y-119.35
X215.425Y-35.8
X216.83Y-117.125
X219.45Y-49.95
X221.257Y-45.0
X222.675Y-88.05
X223.175Y-109.95
X224.54Y-115.475
X225.225Y-109.95
X225.25Y-108.05
X225.625Y-120.925
X226.05Y-108.05
X226.475Y-115.475
X226.655Y-63.15
X226.85Y-108.05
X227.2Y-114.225
X227.455Y-62.35
X227.65Y-108.05
X228.05Y-121.85
X228.45Y-108.05
X229.175Y-121.85
X229.25Y-108.05
X229.255Y-69.0
X230.05Y-108.05
X230.85Y-108.05
X231.475Y-109.325
X232.125Y-108.05
X232.275Y-116.587
X232.35Y-122.0
X232.925Y-108.05
X233.375Y-122.0
X233.563Y-117.85
X233.725Y-108.05
X234.525Y-108.05
X235.325Y-108.05
X236.125Y-108.05
X236.692Y-113.908
X236.825Y-49.0
X236.925Y-108.05
X237.625Y-49.0
X237.725Y-108.05
X238.425Y-49.0
X239.225Y-49.0
X239.375Y-110.675
X240.025Y-49.0
X240.075Y-111.375
X240.325Y-117.875
X240.825Y-49.0
X241.625Y-49.0
X242.425Y-49.0
X243.225Y-49.0
X244.025Y-49.0
X244.825Y-49.0
X245.75Y-49.0
X247.5Y-51.375
X247.5Y-52.825
X248.825Y-108.05
X249.625Y-108.05
X250.425Y-108.05
X251.225Y-108.05
X252.025Y-108.05
X252.825Y-108.05
X253.625Y-106.15
X253.625Y-108.05
X254.425Y-106.15
X254.425Y-108.05
X255.225Y-106.15
X255.225Y-108.05
X256.025Y-106.15
X256.025Y-108.05
X265.4Y-68.05
X266.201Y-68.05
X267.001Y-68.05
X267.801Y-68.05
X268.882Y-66.4
X287.933Y-66.9
X297.716Y-118.711
X298.3Y-119.3
X303.332Y-48.35
X304.175Y-48.35
X320.034Y-67.391
X335.402Y-68.05
X336.192Y-48.857
X359.374Y-102.231
X378.42Y-105.35
X397.47Y-104.2
X417.625Y-104.8
T2
X232.54Y-115.095
X233.442Y-114.193
X233.442Y-115.997
X234.344Y-113.292
X234.344Y-115.095
X234.344Y-116.898
X235.245Y-114.193
X235.245Y-115.997
X236.147Y-115.095
T3
X25.84Y-35.46
X25.84Y-54.51
X25.84Y-73.56
X25.84Y-92.61
X25.84Y-111.66
X32.19Y-32.92
X32.19Y-51.97
X32.19Y-71.02
X32.19Y-90.07
X32.19Y-109.12
X44.89Y-35.46
X44.89Y-54.51
X44.89Y-73.56
X44.89Y-92.61
X44.89Y-111.66
X51.24Y-32.92
X51.24Y-51.97
X51.24Y-71.02
X51.24Y-90.07
X51.24Y-109.12
X68.703Y-35.46
X71.084Y-92.61
X73.465Y-54.51
X73.465Y-111.66
X75.052Y-32.92
X75.846Y-73.56
X77.434Y-90.07
X79.815Y-51.97
X79.815Y-109.12
X80.609Y-92.61
X82.196Y-71.02
X86.959Y-90.07
X87.752Y-35.46
X92.515Y-92.61
X94.102Y-32.92
X97.277Y-54.51
X97.277Y-111.66
X98.865Y-90.07
X102.04Y-73.56
X103.627Y-51.97
X103.627Y-109.12
X106.802Y-35.46
X108.39Y-71.02
X111.565Y-92.61
X113.152Y-32.92
X116.328Y-54.51
X117.915Y-90.07
X121.09Y-73.56
X121.09Y-111.66
X122.677Y-51.97
X125.852Y-35.46
X127.44Y-71.02
X127.44Y-109.12
X130.615Y-92.61
X132.202Y-32.92
X135.377Y-54.51
X136.965Y-90.07
X140.14Y-73.56
X141.727Y-51.97
X144.903Y-35.46
X146.49Y-71.02
X149.665Y-92.61
X151.252Y-32.92
X154.427Y-54.51
X156.015Y-90.07
X159.19Y-73.56
X160.778Y-51.97
X163.952Y-35.46
X165.54Y-71.02
X168.715Y-92.61
X170.302Y-32.92
X173.477Y-54.51
X175.065Y-90.07
X178.24Y-73.56
X179.827Y-51.97
X183.002Y-35.46
X184.59Y-71.02
X187.765Y-92.61
X189.352Y-32.92
X192.528Y-54.51
X194.115Y-90.07
X197.29Y-73.56
X198.877Y-51.97
X202.052Y-35.46
X202.052Y-111.66
X203.64Y-71.02
X206.815Y-92.61
X208.403Y-32.92
X208.403Y-109.12
X211.577Y-54.51
X213.165Y-90.07
X216.34Y-73.56
X217.927Y-51.97
X221.102Y-35.46
X222.69Y-71.02
X225.865Y-92.61
X227.452Y-32.92
X230.627Y-54.51
X232.215Y-90.07
X235.39Y-73.56
X236.977Y-51.97
X240.152Y-35.46
X241.74Y-71.02
X244.915Y-92.61
X246.502Y-32.92
X249.677Y-54.51
X251.265Y-90.07
X254.44Y-73.56
X256.027Y-51.97
X259.202Y-35.46
X260.79Y-71.02
X263.965Y-92.61
X265.553Y-32.92
X268.727Y-54.51
X270.315Y-90.07
X273.49Y-73.56
X275.077Y-51.97
X278.252Y-35.46
X279.84Y-71.02
X283.015Y-92.61
X283.015Y-111.66
X284.602Y-32.92
X287.777Y-54.51
X289.365Y-90.07
X289.365Y-109.12
X292.54Y-73.56
X294.127Y-51.97
X297.303Y-35.46
X298.89Y-71.02
X303.652Y-32.92
X306.827Y-54.51
X306.827Y-111.66
X309.209Y-92.61
X313.178Y-51.97
X313.178Y-109.12
X315.559Y-90.07
X316.352Y-35.46
X318.734Y-92.61
X322.702Y-32.92
X323.496Y-73.56
X325.084Y-90.07
X325.877Y-35.46
X329.846Y-71.02
X330.64Y-54.51
X330.64Y-111.66
X332.227Y-32.92
X335.402Y-35.46
X335.402Y-92.61
X336.99Y-51.97
X336.99Y-109.12
X341.752Y-32.92
X341.752Y-90.07
X359.215Y-35.46
X359.215Y-54.51
X359.215Y-73.56
X359.215Y-92.61
X359.215Y-111.66
X365.565Y-32.92
X365.565Y-51.97
X365.565Y-71.02
X365.565Y-90.07
X365.565Y-109.12
X368.74Y-111.66
X375.09Y-109.12
X378.265Y-35.46
X378.265Y-54.51
X378.265Y-73.56
X378.265Y-92.61
X378.265Y-111.66
X384.615Y-32.92
X384.615Y-51.97
X384.615Y-71.02
X384.615Y-90.07
X384.615Y-109.12
X397.315Y-35.46
X397.315Y-54.51
X397.315Y-73.56
X397.315Y-92.61
X397.315Y-111.66
X403.665Y-32.92
X403.665Y-51.97
X403.665Y-71.02
X403.665Y-90.07
X403.665Y-109.12
X415.095Y-54.51
X415.095Y-64.035
X415.095Y-73.56
X415.095Y-92.61
X415.095Y-102.135
X415.095Y-111.66
X416.365Y-35.46
X417.635Y-60.86
X417.635Y-70.385
X417.635Y-79.91
X417.635Y-98.96
X417.635Y-108.485
X417.635Y-118.01
X422.715Y-32.92
T4
X35.989Y-25.45
X43.119Y-126.705
X70.909Y-126.72
X72.499Y-25.46
X143.939Y-126.705
X151.955Y-25.46
X240.675Y-25.45
X267.749Y-126.715
X316.962Y-126.715
X329.669Y-25.455
X373.319Y-126.71
X373.339Y-25.475
X407.455Y-126.7
X416.979Y-25.465
M30
